# xmcd CD database file
#
# Track frame offsets:
#	150
#	16970
#	31092
#	46972
#	61271
#	79604
#	96383
#	114923
#	132252
#	149344
#
# Disc length: 2230 seconds
#
# Revision: 0
# Processed by: cddbd v1.5.2PL0 Copyright (c) Steve Scherf et al.
# Submitted via: CDex 1.70beta2
#
DISCID=7a08b40a
DTITLE=Nashville Tribute Band - The Greatest Country Songs of Love - Disc 3 - Love
DYEAR=2008
DGENRE=Country
TTITLE0=It's Your Love
TTITLE1=New Artist - LoveYouOutLoud
TTITLE2=New Artist - That's When I Love You
TTITLE3=New Artist - Way You Love Me
TTITLE4=New Artist - Desperately
TTITLE5=New Artist - Beautiful Mess
TTITLE6=When I Said I Do
TTITLE7=New Artist - You Had Me From Hello
TTITLE8=New Artist - Always  On My Mind
TTITLE9=New Artist - To Make You Feel My Love
EXTD=YEAR: 2008
EXTT0=
EXTT1=
EXTT2=
EXTT3=
EXTT4=
EXTT5=
EXTT6=
EXTT7=
EXTT8=
EXTT9=
PLAYORDER=
